<svg width="12" height="12" viewBox="0 0 12 12" version="1.1">
<g id="surface1">
<path style=" stroke:none;fill-rule:nonzero;fill:rgb(0%,0%,0%);fill-opacity:1;" d="M 6 3 C 6.824219 3 7.5 2.324219 7.5 1.5 C 7.5 0.675781 6.824219 0 6 0 C 5.175781 0 4.5 0.675781 4.5 1.5 C 4.5 2.324219 5.175781 3 6 3 Z M 6 4.5 C 5.175781 4.5 4.5 5.175781 4.5 6 C 4.5 6.824219 5.175781 7.5 6 7.5 C 6.824219 7.5 7.5 6.824219 7.5 6 C 7.5 5.175781 6.824219 4.5 6 4.5 Z M 6 9 C 5.175781 9 4.5 9.675781 4.5 10.5 C 4.5 11.324219 5.175781 12 6 12 C 6.824219 12 7.5 11.324219 7.5 10.5 C 7.5 9.675781 6.824219 9 6 9 Z M 6 9 "/>
</g>
</svg>