<svg xmlns="http://www.w3.org/2000/svg" viewBox="0 0 20 20" >
  <path d="M10.2018 8.5677h9.4401c.1042.5816.1563 1.1372.1563 1.6667 0 1.8837-.395 3.5655-1.185 5.0455-.7898 1.48-1.9162 2.6368-3.3788 3.4701-1.4627.8333-3.1402 1.25-5.0326 1.25-1.3628 0-2.6606-.2626-3.8932-.7878-1.2326-.5251-2.296-1.2348-3.1901-2.1289-.8941-.894-1.6037-1.9574-2.129-3.19C.4646 12.6605.2019 11.3627.2019 10s.2626-2.6606.7878-3.8932c.5252-1.2327 1.2348-2.296 2.1289-3.1901.894-.8941 1.9575-1.6038 3.19-2.129C7.5413.2627 8.839 0 10.2019 0c2.6042 0 4.8394.8724 6.7058 2.6172l-2.7214 2.6172c-1.0677-1.033-2.3958-1.5495-3.9844-1.5495-1.1198 0-2.155.2821-3.1054.8464-.9506.5642-1.7036 1.3302-2.2592 2.2981-.5555.968-.8333 2.0248-.8333 3.1706s.2778 2.2027.8333 3.1706c.5556.9679 1.3086 1.734 2.2592 2.2981.9505.5643 1.9856.8464 3.1054.8464.7552 0 1.4497-.1042 2.0834-.3125.6336-.2083 1.1545-.4687 1.5625-.7812.408-.3125.7638-.6684 1.0677-1.0678.3038-.3993.5273-.7769.6705-1.1328.1433-.3559.241-.6944.293-1.0156h-5.677V8.5677z" fill="currentColor" fill-rule="nonzero"/>
</svg>