<svg xmlns="http://www.w3.org/2000/svg" viewBox="0 0 20 20" height="20" width="20">
  <g fill="currentColor" fill-rule="nonzero">
    <path d="M10 1.8045c2.6704 0 2.9832.0111 4.0391.0558.972.0447 1.5028.2067 1.8548.3464.4692.1788.7988.3967 1.1508.7486.352.352.5642.6816.7486 1.1508.1397.352.3017.8827.3464 1.8548.0502 1.0559.0558 1.3687.0558 4.0391 0 2.6704-.0111 2.9832-.0558 4.0391-.0447.972-.2067 1.5028-.3464 1.8548-.1788.4692-.3967.7988-.7486 1.1508-.352.352-.6816.5642-1.1508.7486-.352.1397-.8827.3017-1.8548.3464-1.0559.0502-1.3687.0558-4.0391.0558-2.6704 0-2.9832-.0111-4.0391-.0558-.972-.0447-1.5028-.2067-1.8548-.3464-.4692-.1788-.7988-.3967-1.1508-.7486-.352-.352-.5642-.6816-.7486-1.1508-.1397-.352-.3017-.8827-.3464-1.8548-.0502-1.0559-.0558-1.3687-.0558-4.0391 0-2.6704.0111-2.9832.0558-4.0391.0447-.972.2067-1.5028.3464-1.8548.1788-.4692.3967-.7988.7486-1.1508.352-.352.6816-.5642 1.1508-.7486.352-.1397.8827-.3017 1.8548-.3464C7.0168 1.8156 7.3296 1.8045 10 1.8045m0-1.799c-2.715 0-3.0559.0113-4.123.0615-1.0614.0503-1.7932.218-2.4245.4637-.6592.257-1.2123.5978-1.771 1.1509-.553.553-.8994 1.1117-1.1508 1.771C.285 4.0893.1173 4.8155.067 5.877.0168 6.944.0056 7.2849.0056 10c0 2.715.0112 3.0559.0614 4.1229.0503 1.0615.218 1.7933.4637 2.4246.257.6592.5978 1.2123 1.1509 1.771.553.553 1.1117.8994 1.771 1.1508.6368.2458 1.363.4134 2.4245.4637 1.067.0502 1.4078.0614 4.1229.0614 2.715 0 3.0559-.0112 4.1229-.0614 1.0615-.0503 1.7933-.218 2.4246-.4637.6592-.257 1.2123-.5978 1.771-1.1509.553-.553.8994-1.1117 1.1508-1.771.2458-.6368.4134-1.363.4637-2.4245.0502-1.067.0614-1.4078.0614-4.1229 0-2.715-.0112-3.0559-.0614-4.123-.0503-1.0614-.218-1.7932-.4637-2.4245-.257-.6592-.5978-1.2123-1.1509-1.771-.553-.553-1.1117-.8994-1.771-1.1508C15.9107.285 15.1845.1173 14.123.067 13.056.0168 12.7151.0056 10 .0056z"/>
    <path d="M10 4.866c-2.8324 0-5.134 2.296-5.134 5.134 0 2.838 2.296 5.134 5.134 5.134 2.838 0 5.134-2.296 5.134-5.134 0-2.838-2.3016-5.134-5.134-5.134zm0 8.4636c-1.838 0-3.3296-1.4916-3.3296-3.3296S8.162 6.6704 10 6.6704 13.3296 8.162 13.3296 10 11.838 13.3296 10 13.3296z"/>
    <circle cx="15.3352" cy="4.6648" r="1.2011"/>
  </g>
</svg>