<svg xmlns="http://www.w3.org/2000/svg" viewBox="0 0 20 20" >
  <g fill="currentColor" fill-rule="nonzero">
    <path d="M4.851 2.4468c0 1.3475-1.085 2.4468-2.4255 2.4468C1.0851 4.8936 0 3.8014 0 2.4468 0 1.0993 1.0851 0 2.4255 0 3.766 0 4.8511 1.0993 4.8511 2.4468zM4.4965 6.6241H.3972v13.2482h4.0993zM11.0496 6.6241h-3.929v13.2482h3.929V12.922c0-1.8653.8582-2.9716 2.4965-2.9716 1.5106 0 2.234 1.0638 2.234 2.9716v6.9503h4.078v-8.39c0-3.5461-2.007-5.2624-4.8226-5.2624-2.8085 0-3.993 2.1914-3.993 2.1914V6.6241h.0071z"/>
  </g>
</svg>