<svg xmlns="http://www.w3.org/2000/svg" viewBox="0 0 20 20" >
  <path d="M19.9748 3.8113a7.9933 7.9933 0 01-2.3522.6415c.8428-.5094 1.4969-1.3081 1.7988-2.2641a8.125 8.125 0 01-2.5975.9937c-.7484-.7925-1.8113-1.2956-2.9874-1.2956-2.6415 0-4.585 2.4654-3.9874 5.0251-3.4026-.1698-6.4214-1.7987-8.4403-4.2767C.3396 4.4717.8553 6.8805 2.673 8.1006 2 8.0818 1.371 7.8931.8176 7.5912c-.044 1.8994 1.3145 3.673 3.283 4.0629-.5786.1572-1.2075.195-1.849.0692.522 1.6289 2.0314 2.8113 3.8239 2.8427-1.7233 1.346-3.8868 1.9497-6.063 1.6982 1.8114 1.1635 3.9623 1.8364 6.2768 1.8364 7.5975 0 11.893-6.4214 11.6352-12.176.8113-.5724 1.5032-1.2894 2.0503-2.1133z" fill="currentColor" fill-rule="nonzero"/>
</svg>