<svg xmlns="http://www.w3.org/2000/svg" viewBox="0 0 20 20" >
  <path d="M19.5495 5.1855c-.2293-.8631-.9047-1.543-1.7622-1.7736C16.2329 2.9927 10 2.9927 10 2.9927s-6.2328 0-7.7873.4192c-.8575.2307-1.533.9105-1.7622 1.7736C.0341 6.75.0341 10.0142.0341 10.0142s0 3.2641.4164 4.8286c.2293.8631.9047 1.5146 1.7622 1.7453 1.5545.4192 7.7873.4192 7.7873.4192s6.2328 0 7.7873-.4192c.8575-.2307 1.533-.8822 1.7622-1.7453.4164-1.5645.4164-4.8286.4164-4.8286s0-3.2642-.4164-4.8287zm-11.588 7.7923V7.0505l5.2094 2.9637-5.2094 2.9636z" fill="currentColor" fill-rule="nonzero"/>
</svg>