<svg xmlns="http://www.w3.org/2000/svg" viewBox="0 0 400 60">
  <g fill="currentColor" fill-rule="evenodd">
    <path d="M33.0664 43.785c-2.2163 1.6844-5.7622 3.1028-9.7515 3.1028-6.4714 0-11.0812-5.1417-11.0812-11.2585 0-6.1169 4.6098-11.17 11.0812-11.17 4.0779 0 7.4466 1.4185 9.7515 3.0142V14.7079c-2.4822-1.2411-6.826-2.039-9.7515-2.039C9.3082 12.669 0 22.5978 0 35.6294c0 12.9428 9.3082 23.049 23.315 23.049 3.014 0 7.2692-.798 9.7514-2.1277V43.7851zM61.517 12.669c12.943 0 22.9604 10.0174 22.9604 22.9603 0 12.9428-10.0174 23.049-22.9603 23.049S38.5568 48.572 38.5568 35.6292c0-12.943 10.0174-22.9603 22.9603-22.9603zm0 11.7904c-6.1168 0-10.7265 5.053-10.7265 11.1699 0 6.1168 4.6097 11.2585 10.7266 11.2585 6.2055 0 10.638-5.1417 10.638-11.2585 0-6.1169-4.4325-11.17-10.638-11.17zM104.595 13.5555H92.5386V57.703h12.0564V32.0833c.266-4.6985 3.1027-7.624 7.5352-7.624 4.6098 0 7.5353 3.2801 7.5353 8.1559V57.703h12.145V29.2465c0-9.4856-6.1168-16.5775-15.6024-16.5775-5.4963 0-9.2196 2.6595-11.6131 6.4714v-5.585zM156.6265 57.703V23.8389h7.4466V13.5555h-7.4466V1.3218l-11.3471 2.5708v9.6629h-7.4466v10.2833h6.7374v33.8643zM189.3324 12.669c12.7656 0 20.6554 9.5741 20.6554 21.01 0 1.8616-.3546 4.3438-.7092 5.7622H179.315c1.0638 5.053 5.4963 8.333 11.7018 8.333 5.4963 0 10.9926-1.5956 14.9818-4.1664v11.613c-3.9006 2.039-9.5742 3.4574-15.957 3.4574-13.1201 0-22.783-9.3082-22.783-23.049 0-12.9428 9.3083-22.9602 22.0738-22.9602zm-.0886 10.0174c-5.319 0-9.3083 3.4573-9.9288 7.6239h19.0597c-.1773-4.5212-3.9892-7.624-9.131-7.624zM229.742 13.5555h-12.0564V57.703h12.0564V32.0833c.266-4.6985 3.1027-7.624 7.5352-7.624 4.6098 0 7.5353 3.2801 7.5353 8.1559V57.703h12.145V29.2465c0-9.4856-6.1169-16.5775-15.6024-16.5775-5.4963 0-9.2196 2.6595-11.6131 6.4714v-5.585zM281.7735 57.703V23.8389h7.4466V13.5555h-7.4466V1.3218l-11.3471 2.5708v9.6629h-7.4466v10.2833h6.7374v33.8643zM292.583 50.4338c0 4.6984 3.4573 8.1558 8.1557 8.1558 4.787 0 8.333-3.4574 8.333-8.1558 0-4.7871-3.546-8.3331-8.333-8.3331-4.6984 0-8.1558 3.546-8.1558 8.333zM348.2491 43.785c-2.2162 1.6844-5.7622 3.1028-9.7515 3.1028-6.4714 0-11.0812-5.1417-11.0812-11.2585 0-6.1169 4.6098-11.17 11.0812-11.17 4.078 0 7.4466 1.4185 9.7515 3.0142V14.7079c-2.4822-1.2411-6.826-2.039-9.7515-2.039-14.0067 0-23.3149 9.9288-23.3149 22.9604 0 12.9428 9.3082 23.049 23.315 23.049 3.014 0 7.2692-.798 9.7514-2.1277V43.7851zM376.6998 12.669c12.9429 0 22.9603 10.0174 22.9603 22.9603 0 12.9428-10.0174 23.049-22.9603 23.049s-22.9603-10.1062-22.9603-23.049c0-12.943 10.0174-22.9603 22.9603-22.9603zm0 11.7904c-6.1168 0-10.7266 5.053-10.7266 11.1699 0 6.1168 4.6098 11.2585 10.7266 11.2585 6.2055 0 10.638-5.1417 10.638-11.2585 0-6.1169-4.4325-11.17-10.638-11.17z"/>
  </g>
</svg>