<svg xmlns="http://www.w3.org/2000/svg" viewBox="0 0 20 20" >
  <path d="M11.6777 14.8743l-1.881-4.7599-1.5095 3.792a.9897.9897 0 01-.808.617c-.3642.0438-.718-.1208-.9253-.4204l-1.7067-2.467-1.5364 1.8511c-.3488.4209-.9732.4783-1.3935.1296-.4204-.3494-.4784-.9732-.1296-1.3936l2.37-2.8552c.1976-.238.4943-.3756.805-.3565a.9888.9888 0 01.7702.4257l1.3983 2.0217 1.7493-4.394a.9894.9894 0 011.8397.002l1.7572 4.447 1.9254-6.3127a.99.99 0 01.8673-.6978c.3996-.033.7886.1854.9679.5507l2.101 4.2823c.2404.4903.038 1.0833-.4529 1.3243-.4919.2403-1.0838.0373-1.3243-.4528l-.997-2.0326-2.02 6.6243a.99.99 0 01-.907.6997c-.4445.0008-.8103-.246-.9601-.625z" fill="currentColor" fill-rule="nonzero"/>
</svg>