<svg xmlns="http://www.w3.org/2000/svg" viewBox="0 0 20 20" >
  <g stroke="currentColor" stroke-width="1.5" fill="none" fill-rule="evenodd" stroke-linecap="round">
    <path d="M12.6841 8.4573l-5.4668 6.314c-.3714.4427-1.1648.3885-1.772-.1211-.6074-.5096-.7986-1.2815-.4271-1.7241l3.361-4.0056"/>
    <path d="M8.5943 8.6641l4.8412-5.7694c1.023-1.2193 2.8813-1.3443 4.1506-.2793 1.2692 1.065 1.4687 2.9168.4456 4.136l-4.8411 5.7695"/>
    <path d="M14.8776 10.5104l-5.7884 6.8983c-1.4982 1.7855-4.256 1.9378-6.1599.3403a4.7733 4.7733 0 01-.9102-1.0162c-.5934-.8938-.848-1.9436-.7394-2.9488.084-.7778.3853-1.529.915-2.1603l5.8931-7.0231"/>
  </g>
</svg>