<svg xmlns="http://www.w3.org/2000/svg" viewBox="0 0 20 20" >
  <g fill="currentColor" fill-rule="evenodd">
    <path d="M2 10h7c.5523 0 1 .4477 1 1v7c0 .5523-.4477 1-1 1s-1-.4477-1-1v-5c0-.5523-.4477-1-1-1H2c-.5523 0-1-.4477-1-1s.4477-1 1-1zM18 10h-7c-.5523 0-1-.4477-1-1V2c0-.5523.4477-1 1-1s1 .4477 1 1v5c0 .5523.4477 1 1 1h5c.5523 0 1 .4477 1 1s-.4477 1-1 1z"/>
    <path d="M1.7071 16.8787L7.5858 11c.3905-.3905 1.0237-.3905 1.4142 0 .3905.3905.3905 1.0237 0 1.4142L3.1213 18.293c-.3905.3905-1.0237.3905-1.4142 0-.3905-.3905-.3905-1.0237 0-1.4142zM11 7.5858l5.8787-5.8787c.3905-.3905 1.0237-.3905 1.4142 0 .3905.3905.3905 1.0237 0 1.4142L12.4142 9c-.3905.3905-1.0237.3905-1.4142 0-.3905-.3905-.3905-1.0237 0-1.4142z"/>
  </g>
</svg>