<svg xmlns="http://www.w3.org/2000/svg" viewBox="0 0 20 20" >
  <g fill="currentColor" fill-rule="nonzero">
    <path d="M11.4743 11.5508c.2578.2031.586.4219.9843.6562.461-.0547.918-.082 1.3711-.082 1.1485 0 1.8399.1914 2.0743.5742.125.1719.1328.375.0234.6094 0 .0078-.004.0156-.0117.0234l-.0235.0235v.0117c-.0468.2969-.3242.4453-.832.4453-.375 0-.8242-.0781-1.3476-.2344a8.5436 8.5436 0 01-1.5235-.621c-1.7265.1874-3.2578.5116-4.5937.9726C6.4 15.9766 5.4547 17 4.7594 17a.6815.6815 0 01-.328-.082l-.2813-.1407a1.2536 1.2536 0 00-.0704-.0586c-.078-.078-.1015-.2187-.0703-.4218.0703-.3125.289-.67.6563-1.0723.3672-.4023.8828-.7793 1.5469-1.1309.1093-.0703.1992-.0468.2695.0704.0156.0156.0234.0312.0234.0468.4063-.664.8242-1.4336 1.254-2.3086.5312-1.0625.9374-2.0859 1.2187-3.0703-.1875-.6406-.3067-1.2636-.3574-1.8691-.0508-.6055-.0254-1.1035.0761-1.4942.086-.3125.25-.4687.4922-.4687h.2578c.1797 0 .3164.0586.4102.1758.1406.164.1758.4297.1055.7969-.0157.0468-.0313.078-.047.0937.0079.0234.0118.0547.0118.0938v.3515c-.0156.961-.0703 1.711-.164 2.25.4296 1.2813 1 2.211 1.7109 2.789zm-6.75 4.8164c.4062-.1875.9414-.8047 1.6054-1.8516-.3984.3125-.7402.6407-1.0253.9844-.2852.3438-.4786.6328-.5801.8672zm4.664-10.7813c-.1172.3282-.125.8438-.0234 1.547.0078-.0548.0352-.2267.082-.5157 0-.0235.0274-.1914.082-.504a.264.264 0 01.047-.0937c-.0079-.0078-.0118-.0156-.0118-.0234-.0078-.0156-.0117-.0274-.0117-.0352-.0078-.1718-.0586-.3125-.1523-.4218 0 .0078-.004.0156-.0118.0234v.0234zm-1.453 7.7461c1.0546-.4218 2.164-.7383 3.328-.9492-.0156-.0078-.0664-.045-.1523-.1113-.086-.0664-.1484-.1192-.1875-.1582-.5938-.5235-1.0899-1.211-1.4883-2.0625-.211.6719-.5351 1.4414-.9726 2.3086-.2344.4375-.4102.7617-.5274.9726zm7.5702-.1875c-.1875-.1875-.7344-.2812-1.6406-.2812.5937.2187 1.0781.3281 1.4531.3281.1094 0 .1797-.0039.211-.0117 0-.0078-.0079-.0195-.0235-.0352z"/>
    <path d="M13.5833 0L19 5.7143V18c0 1.1046-.8954 2-2 2H3c-1.1046 0-2-.8954-2-2V2c0-1.1046.8954-2 2-2h10.5833zM3 2v16h14V8h-6V2H3zm13.516 4L13 2.292V6h3.516z"/>
  </g>
</svg>