<svg xmlns="http://www.w3.org/2000/svg" viewBox="0 0 20 20" >
  <path d="M10 0c5.5228 0 10 4.4772 10 10s-4.4772 10-10 10S0 15.5228 0 10 4.4772 0 10 0zm-.2427 13.5577c-.7978 0-1.3773.5291-1.3773 1.2818 0 .7269.5795 1.2641 1.376 1.2641.8304 0 1.403-.5372 1.403-1.264 0-.7528-.5713-1.2819-1.4017-1.2819zm.2509-9.694c-1.8082 0-3.7991.8822-3.7582 3.454h1.8014c0-1.065.6231-1.8872 1.8518-1.8872.9354 0 1.7918.4677 1.7918 1.5927 0 .8659-.5114 1.264-1.316 1.8695-.9176.6668-1.6445 1.4455-1.5926 2.7096l.0095.6313h1.7836v-.484c0-.9791.3723-1.2641 1.3773-2.0264.8305-.6314 1.6964-1.3323 1.6964-2.805 0-2.0591-1.74-3.0546-3.645-3.0546z" fill="currentColor" fill-rule="nonzero"/>
</svg>