<svg xmlns="http://www.w3.org/2000/svg" viewBox="0 0 20 20" >
  <path d="M13.4442 1.685a1.9794 1.9794 0 011.2117 2.0289l-.0238.2344a1.2753 1.2753 0 01-.0598.2776c.3602.2845.6901.6007.9867.9425l.2155.2602c.13-.0349.2225-.0551.2772-.0607l.2344-.0238a1.9794 1.9794 0 011.4511 3.5032l-.1826.149a1.2753 1.2753 0 01-.239.154c.0526.4471.0641.902.0324 1.3587l-.032.3422c.1164.067.196.1178.2386.1526l.1826.149a1.9794 1.9794 0 01-1.451 3.5031l-.2345-.0238a1.2753 1.2753 0 01-.2776-.0598 7.2837 7.2837 0 01-.9425.9867l-.261.2152c.0354.1303.056.2228.0615.2775l.0238.2344a1.9794 1.9794 0 01-3.5032 1.4511l-.149-.1826a1.2753 1.2753 0 01-.154-.239 7.308 7.308 0 01-1.7015.0005c-.0492.095-.0999.1746-.152.2385l-.149.1826a1.9794 1.9794 0 01-3.5031-1.451l.0238-.2345a1.2753 1.2753 0 01.0598-.2776 7.2837 7.2837 0 01-.9867-.9425l-.216-.2614c-.1297.0357-.222.0563-.2767.062l-.2344.0237a1.9794 1.9794 0 01-1.4511-3.5032l.1826-.149a1.2753 1.2753 0 01.239-.154A7.3084 7.3084 0 012.652 9.491l.0316-.3434c-.1162-.0662-.1956-.1166-.2382-.1514l-.1826-.149a1.9794 1.9794 0 011.451-3.5031l.2345.0238c.0965.0098.1894.0301.2776.0598a7.2837 7.2837 0 01.9425-.9867l.2606-.2164c-.0352-.1295-.0555-.2216-.0611-.2763L5.344 3.714a1.9794 1.9794 0 013.5032-1.4511l.149.1826c.0613.0753.1126.1555.154.239a7.308 7.308 0 011.7015-.0005c.0492-.095.0999-.1746.152-.2385l.149-.1826a1.9794 1.9794 0 012.2914-.5777zM11.148 7.2285c-1.5308-.634-3.2857.0928-3.9197 1.6235-.634 1.5308.0928 3.2857 1.6235 3.9197 1.5308.634 3.2857-.0928 3.9197-1.6235.634-1.5308-.0928-3.2857-1.6235-3.9197z" stroke="currentColor" stroke-width="2" fill="none" fill-rule="evenodd"/>
</svg>