<svg xmlns="http://www.w3.org/2000/svg" viewBox="0 0 20 20">
  <g fill="currentColor" fill-rule="nonzero">
    <path d="M13.5833 0L19 5.7143V18c0 1.1046-.8954 2-2 2H3c-1.1046 0-2-.8954-2-2V2c0-1.1046.8954-2 2-2h10.5833zM3 2v16h14V8h-6V2H3zm13.516 4L13 2.292V6h3.516z"/>
    <path d="M8.7054 9.8827c.1488.055.2232.1584.2232.3099v5.6195c0 .1515-.0744.2548-.2232.3099-.0596.0137-.1042.0206-.134.0206-.0893 0-.1748-.031-.2567-.093l-1.8526-1.725H5c-.1042 0-.1897-.031-.2567-.093-.067-.062-.1004-.1412-.1004-.2376v-1.9833c0-.0965.0334-.1757.1004-.2376.067-.062.1525-.093.2567-.093h1.462L8.3148 9.955c.119-.1033.2493-.1274.3907-.0723zM13.3594 17c.2306 0 .4166-.0826.558-.248.9598-1.0949 1.4397-2.3448 1.4397-3.7497 0-1.4048-.4799-2.6548-1.4397-3.7497-.119-.1447-.279-.2273-.4799-.248-.2009-.0206-.3757.0276-.5246.1447-.1562.117-.2436.2668-.2622.4493-.0186.1825.0353.346.1618.4907.744.847 1.116 1.818 1.116 2.913 0 1.095-.372 2.066-1.116 2.913-.1265.1447-.1804.3082-.1618.4907.0186.1825.106.3289.2622.439.134.1034.2828.155.4465.155zm-2.355-1.5288c.201 0 .3758-.0689.5246-.2066.6473-.6405.971-1.3946.971-2.2623 0-.8677-.3237-1.6218-.971-2.2622-.134-.1309-.3013-.1997-.5022-.2066-.201-.007-.372.0516-.5134.1756-.1414.124-.2158.2772-.2232.4597-.0075.1825.0595.3426.2009.4803.3869.3925.5803.8436.5803 1.3532 0 .5096-.1934.9607-.5803 1.3532-.1414.1378-.2084.2979-.201.4804.0075.1825.082.3357.2233.4597.1488.117.3125.1756.491.1756z"/>
  </g>
</svg>