<svg xmlns="http://www.w3.org/2000/svg" viewBox="0 0 20 20" height="20" width="20">
  <g fill-rule="nonzero" fill="none">
    <path d="M16.8571 2c.6031 0 1.1554.2626 1.5528.706.36.4015.5901.9543.5901 1.569h0v8.45c0 .6147-.2302 1.1675-.59 1.569-.3975.4434-.9498.706-1.5529.706h0H14c-.4048 0-.7724.2332-1.0078.5917h0L10 19.698l-2.9922-4.1063C6.7724 15.2332 6.4048 15 6 15h0-2.8571c-.6031 0-1.1554-.2626-1.5528-.706C1.23 13.8925 1 13.3397 1 12.725h0v-8.45c0-.6147.2302-1.1675.59-1.569C1.9876 2.2626 2.5399 2 3.143 2h0z" stroke="currentColor" stroke-width="2" stroke-linejoin="round"/>
    <path d="M16 9c0 .5523-.4477 1-1 1s-1-.4477-1-1 .4477-1 1-1 1 .4477 1 1zM11 9c0 .5523-.4477 1-1 1s-1-.4477-1-1 .4477-1 1-1 1 .4477 1 1zM6 9c0 .5523-.4477 1-1 1s-1-.4477-1-1 .4477-1 1-1 1 .4477 1 1z" fill="currentColor"/>
  </g>
</svg>