<svg xmlns="http://www.w3.org/2000/svg" viewBox="0 0 20 20" height="20" width="20">
  <g fill="none" fill-rule="evenodd">
    <path d="M13 2v17h0H1V2c0-.5523.4477-1 1-1h10c.5523 0 1 .4477 1 1z" stroke="currentColor" stroke-width="2"/>
    <path fill="currentColor" d="M4 5h2v2H4zM8 5h2v2H8zM4 9h2v2H4zM8 9h2v2H8zM4 13h2v2H4zM15 9h2v2h-2zM8 13h2v2H8z"/>
    <path d="M17.4 5H13v14h6V6.6c0-.8837-.7163-1.6-1.6-1.6z" stroke="currentColor" stroke-width="2"/>
    <path fill="currentColor" d="M15 13h2v2h-2z"/>
  </g>
</svg>