<svg xmlns="http://www.w3.org/2000/svg" viewBox="0 0 15 20">
  <g fill="currentColor" fill-rule="nonzero">
    <path d="M3 10c0 .8284.6716 1.5 1.5 1.5S6 10.8284 6 10s-.6716-1.5-1.5-1.5S3 9.1716 3 10zM3 3.5C3 4.3284 3.6716 5 4.5 5S6 4.3284 6 3.5 5.3284 2 4.5 2 3 2.6716 3 3.5zM3 16.5c0 .8284.6716 1.5 1.5 1.5S6 17.3284 6 16.5 5.3284 15 4.5 15 3 15.6716 3 16.5zM9 10c0 .8284.6716 1.5 1.5 1.5S12 10.8284 12 10s-.6716-1.5-1.5-1.5S9 9.1716 9 10zM9 3.5c0 .8284.6716 1.5 1.5 1.5S12 4.3284 12 3.5 11.3284 2 10.5 2 9 2.6716 9 3.5zM9 16.5c0 .8284.6716 1.5 1.5 1.5s1.5-.6716 1.5-1.5-.6716-1.5-1.5-1.5-1.5.6716-1.5 1.5z"/>
  </g>
</svg>