<svg xmlns="http://www.w3.org/2000/svg" viewBox="0 0 20 20" height="20" width="20">
  <g fill="currentColor" fill-rule="nonzero">
    <path d="M6.4688 15.8958V17h2.927v-1.1042h-.7812l1.0729-1.677a1.4934 1.4934 0 00.1042-.172 2.4613 2.4613 0 01.078-.1405c.0175-.0278.0296-.0417.0366-.0417h.0208c.007.0278.0243.0625.052.1042a.5817.5817 0 00.047.078c.0173.0244.0381.0522.0624.0834.0243.0313.047.0608.0678.0885l1.1145 1.6771h-.7916V17h3.0312v-1.1042h-.7083l-2-2.8437 2.0312-2.9375h.698V9H10.625v1.1146h.7708l-1.0729 1.6562a4.6447 4.6447 0 01-.1042.172 2.3811 2.3811 0 01-.0937.1405l-.0208.0313h-.0209c-.007-.0278-.0243-.0625-.052-.1042-.0417-.0764-.1007-.1562-.1771-.2396L8.75 10.1146h.7917V9H6.5208v1.1146h.7084l1.9687 2.8333-2.0208 2.948h-.7084z"/>
    <path d="M13.5833 0L19 5.7143V18c0 1.1046-.8954 2-2 2H3c-1.1046 0-2-.8954-2-2V2c0-1.1046.8954-2 2-2h10.5833zM3 2v16h14V8h-6V2H3zm13.516 4L13 2.292V6h3.516z"/>
  </g>
</svg>