<svg xmlns="http://www.w3.org/2000/svg" viewBox="0 0 20 20">
  <g fill="none" fill-rule="evenodd">
    <path d="M13 0h6c.5523 0 1 .4477 1 1v6c0 .5523-.4477 1-1 1s-1-.4477-1-1V3c0-.5523-.4477-1-1-1h-4c-.5523 0-1-.4477-1-1s.4477-1 1-1z" fill="currentColor"/>
    <path d="M7.7071 10.8787L17.5858 1C17.9763.6095 18.6095.6095 19 1c.3905.3905.3905 1.0237 0 1.4142L9.1213 12.293c-.3905.3905-1.0237.3905-1.4142 0-.3905-.3905-.3905-1.0237 0-1.4142z" fill="currentColor"/>
    <path d="M16 11.1429V17c0 1.1046-.8954 2-2 2H3c-1.1046 0-2-.8954-2-2V6c0-1.1046.8954-2 2-2h5.8571" stroke="currentColor" stroke-width="2" stroke-linecap="round" stroke-linejoin="round"/>
  </g>
</svg>