<svg width="24" height="24" viewBox="0 0 24 24" version="1.1">
<g id="surface1">
<path style=" stroke:none;fill-rule:nonzero;fill:rgb(0%,0%,0%);fill-opacity:1;" d="M 23.929688 1.355469 C 23.808594 1.101562 23.554688 0.9375 23.273438 0.9375 L 0.726562 0.9375 C 0.445312 0.9375 0.191406 1.101562 0.0703125 1.355469 C -0.0507812 1.609375 -0.0117188 1.910156 0.167969 2.128906 L 8.832031 12.640625 L 8.832031 22.332031 C 8.832031 22.585938 8.964844 22.820312 9.175781 22.953125 C 9.292969 23.023438 9.425781 23.0625 9.558594 23.0625 C 9.671875 23.0625 9.78125 23.035156 9.882812 22.984375 L 14.753906 20.570312 C 15 20.449219 15.15625 20.195312 15.15625 19.921875 L 15.167969 12.640625 L 23.832031 2.128906 C 24.011719 1.910156 24.050781 1.609375 23.929688 1.355469 Z M 13.878906 11.917969 C 13.769531 12.046875 13.710938 12.210938 13.710938 12.378906 L 13.703125 19.46875 L 10.289062 21.160156 L 10.289062 12.378906 C 10.289062 12.210938 10.230469 12.046875 10.121094 11.917969 L 2.269531 2.394531 L 21.730469 2.394531 Z M 13.878906 11.917969 "/>
</g>
</svg>
