<svg viewBox="0 0 30 30"
  width="30"
  height="30"
  xmlns="http://www.w3.org/2000/svg">
  <g fill="none"
    fill-rule="evenodd"
    stroke="currentColor"
    stroke-width="2">
    <path d="M7.06 7C6.585 7.071 6 7.877 6 9v12c0 1.314.682 2 2 2h14c1.318 0 2-.686 2-2V11c0-.683-.693-1.212-1.829-1.015L22 10h-6.449l-.298-.335c-1.393-1.566-2.16-2.36-2.564-2.673-.815-.014-2.953-.016-5.628.007z" />
    <path d="M7 14c-.338 0-1 .656-1 1v7c0 .344.662 1 1 1h16c.338 0 1-.656 1-1v-7c0-.344-.662-1-1-1H7z" />
  </g>
</svg>