<svg width="30"
  height="30"
  viewBox="0 0 30 30"
  xmlns="http://www.w3.org/2000/svg">
  <g fill="currentColor"
    fill-rule="nonzero">
    <path d="M8.946 22.099h11.28v1.28H8.945zM16.616 11.78h-3.95a.643.643 0 000 1.283h3.95a.643.643 0 000-1.284zM19.608 14.774h-6.942a.637.637 0 00-.642.635.64.64 0 00.642.641h6.942a.64.64 0 00.641-.641.637.637 0 00-.641-.635z" />
    <path d="M23.054 6.128a.642.642 0 00-.686.107L20.57 7.822l-1.794-1.605a.643.643 0 00-.855 0l-1.795 1.601-1.797-1.6a.638.638 0 00-.852 0l-1.798 1.604-1.79-1.587a.649.649 0 00-.69-.107.648.648 0 00-.38.586v11.407H6.642a.643.643 0 00-.642.645v1.563c0 1.68 1.37 3.05 3.057 3.05v-1.28a1.777 1.777 0 01-1.774-1.77v-.921h10.04v.92c0 1.681 1.37 3.05 3.054 3.05a3.06 3.06 0 003.057-3.05V6.715a.648.648 0 00-.38-.586zm-.904 14.2a1.774 1.774 0 01-3.546 0v-1.562a.641.641 0 00-.642-.645h-7.863V8.139l1.16 1.025c.244.214.61.21.851-.004l1.794-1.604 1.798 1.604a.634.634 0 00.849 0l1.797-1.604 1.794 1.604a.65.65 0 00.853.004l1.155-1.025v12.19z" />
  </g>
</svg>