<svg xmlns="http://www.w3.org/2000/svg" viewBox="0 0 20 20" height="20" width="20">
  <g fill="none" fill-rule="evenodd">
    <path d="M19 14v2c0 .8284-.3358 1.5784-.8787 2.1213C17.5784 18.6643 16.8284 19 16 19h0H5c.4262-.3213.8082-.5656 1.1213-.8787C6.6643 17.5784 7 16.8284 7 16h0v-2h12z" stroke="currentColor" stroke-width="2"/>
    <path d="M15 1.203V14H7v2c0 .8012-.314 1.5292-.826 2.0672-.5092.5354-1.2141.8832-2.0005.9279-.9035-.0039-1.697-.3296-2.266-.8709C1.3396 17.5837 1 16.8314 1 16h0V1.204l2.4286 2.1248 2.2896-2.0035 2.3173 2.0035 2.2542-1.9965 2.2817 1.9965L15 1.203z" stroke="currentColor" stroke-width="2"/>
    <path fill="currentColor" d="M4 10h6v2H4zM4 6h8v2H4z"/>
  </g>
</svg>