<svg xmlns="http://www.w3.org/2000/svg" viewBox="0 0 300 300">
  <g fill="none" fill-rule="evenodd">
    <circle fill="#4A90E2" cx="166.9225" cy="150" r="115.5"/>
    <path fill="#FFF" fill-rule="nonzero"  d="M45.0522 96.6056l52.8654-19.8245v150.5531l-52.8654 19.8246z"/>
    <path fill="#FFF" d="M218.7528 227.3342l-52.8654 19.8246V96.6056l52.8654-19.8245z"/>
    <path d="M221.2073 67.794a3.7761 3.7761 0 013.474.4531 3.7762 3.7762 0 011.6171 2.8793l.0066.2171v158.5962a3.7762 3.7762 0 01-2.3064 3.326l-.1858.0725-59.9889 22.6246a3.76 3.76 0 01-1.7126.41 3.7827 3.7827 0 01-1.3216-.227l-59.1027-22.1643-59.0893 22.1644a3.7789 3.7789 0 01-1.0518.2193l-.2698.0075c-2.0203 0-3.67-1.5868-3.7712-3.582l-.0049-.1944V94.0001a3.7762 3.7762 0 012.3065-3.326l.1857-.0725 60.022-22.6374a3.7763 3.7763 0 013.0011-.1702l59.1017 22.1635 59.0903-22.1635zM97.9176 76.781L45.0522 96.6056v150.5532l52.8654-19.8246V76.7811zm120.8352 0l-52.8654 19.8245v150.5532l52.8654-19.8246V76.7811zm-113.283 0v150.5531l52.8654 19.8246V96.6056l-52.8654-19.8245z" fill="#000" fill-rule="nonzero" />
    <path fill="#C5DFF7" fill-rule="nonzero"  d="M105.4698 227.3342l52.8654 19.8246V96.6056l-52.8654-19.8245z"/>
    <path d="M102.0943 173.3071l.235.0327.2464.051.1034.026.1366.04.1996.068 59.0954 22.16 28.8878-10.8317c1.9603-.73 4.1412.2675 4.8712 2.2279.7299 1.9604-.2676 4.1413-2.228 4.8712l-30.159 11.3107a3.7583 3.7583 0 01-.6075.1736l-.2679.0422-.217.0206-.083.0046-.196.0034a3.9261 3.9261 0 01-.2412-.0056l.2412.0056a3.8473 3.8473 0 01-.317-.0107l-.236-.0254a3.6644 3.6644 0 01-.3399-.0625l-.177-.0467a3.4488 3.4488 0 01-.3015-.0991l-59.0472-22.143-28.8862 10.8323a3.7797 3.7797 0 01-1.3216.2267c-1.8395.0163-3.4232-1.2953-3.7498-3.1057-.3267-1.8104.6989-3.5927 2.4282-4.2201l30.2088-11.3283.1128-.04.277-.082.187-.0426.2198-.0376.1206-.0142c.2702-.0302.54-.0296.805-.0013z" fill="#000" fill-rule="nonzero" />
    <path d="M192.3201 127.985c-12.4104-.0008-22.5118 9.9828-22.6566 22.3923 0 20.844 20.24 30.2088 21.1084 30.662l1.5482.7174 1.5482-.7175c.8685-.3776 21.1084-9.8178 21.1084-30.6619-.1448-12.4095-10.2462-22.3931-22.6566-22.3923zm0 45.3132c-4.116-2.3411-15.1044-9.8933-15.1044-22.9587 0-8.3419 6.7625-15.1044 15.1044-15.1044 8.342 0 15.1044 6.7625 15.1044 15.1044 0 13.1786-10.9129 20.6553-15.1044 22.9587z" fill="#000" fill-rule="nonzero" />
    <path d="M192.3201 135.5372c-8.2398-.0012-14.9602 6.6016-15.1044 14.8401 0 13.0653 10.9885 20.6175 15.1044 22.9587 4.1915-2.3412 15.1044-9.8179 15.1044-22.9587-.1442-8.2385-6.8646-14.8413-15.1044-14.84zm0 22.3168c-3.0848-.0031-5.8577-1.8821-7.0039-4.7461-1.1462-2.864-.4353-6.1373 1.7957-8.2678 2.2309-2.1305 5.5334-2.69 8.3416-1.4133 2.8082 1.2767 4.5576 4.1331 4.4188 7.2148-.1819 4.0377-3.5104 7.2165-7.5522 7.2124z" fill="#8CC0F0" fill-rule="nonzero" opacity=".5" />
    <path d="M71.485 180.8504c-2.0856 0-3.7762-1.6906-3.7762-3.776v-18.8806c0-2.0855 1.6906-3.776 3.7761-3.776 2.0855 0 3.7761 1.6905 3.7761 3.776v18.8805c0 2.0855-1.6906 3.7761-3.776 3.7761z" fill="#000" fill-rule="nonzero" />
    <path d="M71.485 131.7611c-7.5894.0217-13.9842 5.6716-14.9409 13.2004-.9566 7.5289 3.822 14.5985 11.1647 16.5175a14.7646 14.7646 0 007.5522 0c7.3428-1.919 12.1214-8.9886 11.1647-16.5175-.9566-7.5288-7.3514-13.1787-14.9408-13.2004zm0 22.6566c-4.171 0-7.5523-3.3812-7.5523-7.5522 0-4.171 3.3812-7.5522 7.5522-7.5522 4.171 0 7.5522 3.3813 7.5522 7.5522 0 4.171-3.3812 7.5522-7.5522 7.5522z" fill="#000" fill-rule="nonzero" />
    <circle fill="#8CC0F0" fill-rule="nonzero" opacity=".5"  cx="71.4849" cy="146.8655" r="7.5522"/>
  </g>
</svg>