<svg width="24" height="24" viewBox="0 0 24 24" version="1.1">
<g id="surface1">
<path style=" stroke:none;fill-rule:nonzero;fill:rgb(0%,0%,0%);fill-opacity:1;" d="M 13.816406 10.894531 L 21.835938 10.894531 C 22.167969 10.894531 22.433594 10.628906 22.433594 10.300781 L 22.433594 9.167969 C 22.433594 8.839844 22.167969 8.570312 21.835938 8.570312 L 17.191406 8.570312 L 23.824219 1.9375 C 24.058594 1.703125 24.058594 1.328125 23.824219 1.09375 L 23.023438 0.292969 C 22.90625 0.175781 22.753906 0.117188 22.601562 0.117188 C 22.449219 0.117188 22.296875 0.175781 22.183594 0.292969 L 15.546875 6.929688 L 15.546875 2.28125 C 15.546875 1.953125 15.28125 1.683594 14.949219 1.683594 L 13.816406 1.683594 C 13.488281 1.683594 13.222656 1.953125 13.222656 2.28125 L 13.222656 10.300781 C 13.222656 10.628906 13.488281 10.894531 13.816406 10.894531 Z M 13.816406 10.894531 "/>
<path style=" stroke:none;fill-rule:nonzero;fill:rgb(0%,0%,0%);fill-opacity:1;" d="M 6.808594 8.570312 L 2.160156 8.570312 C 1.832031 8.570312 1.566406 8.839844 1.566406 9.167969 L 1.566406 10.300781 C 1.566406 10.628906 1.832031 10.894531 2.160156 10.894531 L 10.183594 10.894531 C 10.511719 10.894531 10.777344 10.628906 10.777344 10.300781 L 10.777344 2.28125 C 10.777344 1.953125 10.511719 1.683594 10.183594 1.683594 L 9.050781 1.683594 C 8.71875 1.683594 8.453125 1.953125 8.453125 2.28125 L 8.453125 6.929688 L 1.816406 0.292969 C 1.703125 0.175781 1.550781 0.117188 1.398438 0.117188 C 1.246094 0.117188 1.089844 0.175781 0.976562 0.292969 L 0.175781 1.09375 C -0.0585938 1.328125 -0.0585938 1.703125 0.175781 1.9375 Z M 6.808594 8.570312 "/>
<path style=" stroke:none;fill-rule:nonzero;fill:rgb(0%,0%,0%);fill-opacity:1;" d="M 13.816406 22.316406 L 14.949219 22.316406 C 15.28125 22.316406 15.546875 22.046875 15.546875 21.71875 L 15.546875 17.070312 L 22.183594 23.707031 C 22.414062 23.941406 22.792969 23.941406 23.023438 23.707031 L 23.824219 22.90625 C 24.058594 22.671875 24.058594 22.296875 23.824219 22.0625 L 17.191406 15.429688 L 21.835938 15.429688 C 22.167969 15.429688 22.433594 15.160156 22.433594 14.832031 L 22.433594 13.699219 C 22.433594 13.371094 22.167969 13.105469 21.835938 13.105469 L 13.816406 13.105469 C 13.488281 13.105469 13.222656 13.371094 13.222656 13.699219 L 13.222656 21.71875 C 13.222656 22.046875 13.488281 22.316406 13.816406 22.316406 Z M 13.816406 22.316406 "/>
<path style=" stroke:none;fill-rule:nonzero;fill:rgb(0%,0%,0%);fill-opacity:1;" d="M 0.976562 23.707031 C 1.207031 23.941406 1.585938 23.941406 1.816406 23.707031 L 8.453125 17.070312 L 8.453125 21.71875 C 8.453125 22.046875 8.71875 22.316406 9.046875 22.316406 L 10.183594 22.316406 C 10.511719 22.316406 10.777344 22.046875 10.777344 21.71875 L 10.777344 13.699219 C 10.777344 13.371094 10.511719 13.105469 10.183594 13.105469 L 2.160156 13.105469 C 1.832031 13.105469 1.566406 13.371094 1.566406 13.699219 L 1.566406 14.832031 C 1.566406 15.160156 1.832031 15.429688 2.160156 15.429688 L 6.808594 15.429688 L 0.175781 22.0625 C -0.0585938 22.296875 -0.0585938 22.671875 0.175781 22.90625 Z M 0.976562 23.707031 "/>
</g>
</svg>
