<?xml version="1.0" encoding="UTF-8"?>
<svg xmlns="http://www.w3.org/2000/svg" viewBox="0 0 20 20" >
  <g fill="none" fill-rule="evenodd">
    <path stroke="currentColor" stroke-width="2" d="M12.614 4.458l-.093-.408C12.25 2.85 11.206 2 10 2s-2.252.85-2.52 2.05l-.094.408-.344.209C5.26 5.733 4.162 7.683 4.16 9.792v2.8l-.614.229a1.647 1.647 0 00-1.021 1.817A1.62 1.62 0 004.084 16h11.831a1.62 1.62 0 001.561-1.362 1.647 1.647 0 00-1.021-1.817l-.623-.228V9.792a5.97 5.97 0 00-2.874-5.125l-.344-.209z"/>
    <path fill="currentColor" fill-rule="nonzero" d="M12 18a2 2 0 11-4 0h4z"/>
  </g>
</svg>