<svg width="30" height="30" viewBox="0 0 30 30" version="1.1">
<g id="surface1">
<path style=" stroke:none;fill-rule:nonzero;fill:rgb(0%,0%,0%);fill-opacity:1;" d="M 26.609375 18.476562 L 24.394531 16.257812 L 14.417969 6.28125 C 12.578125 4.457031 9.609375 4.464844 7.777344 6.292969 C 5.945312 8.125 5.941406 11.09375 7.765625 12.933594 L 17.742188 22.910156 C 18.148438 23.320312 18.8125 23.320312 19.21875 22.910156 C 19.628906 22.503906 19.628906 21.84375 19.21875 21.433594 L 9.246094 11.453125 C 8.222656 10.433594 8.222656 8.78125 9.246094 7.761719 C 10.265625 6.738281 11.917969 6.738281 12.9375 7.761719 L 22.917969 17.734375 L 25.132812 19.953125 C 26.972656 21.789062 26.972656 24.769531 25.132812 26.605469 C 23.296875 28.441406 20.316406 28.441406 18.480469 26.605469 L 16.632812 24.757812 L 6.289062 14.410156 L 5.550781 13.671875 C 2.964844 11.007812 3 6.761719 5.621094 4.140625 C 8.246094 1.515625 12.492188 1.480469 15.15625 4.066406 L 26.242188 15.148438 C 26.503906 15.414062 26.890625 15.515625 27.25 15.421875 C 27.609375 15.324219 27.890625 15.042969 27.988281 14.679688 C 28.085938 14.320312 27.980469 13.9375 27.71875 13.671875 L 16.632812 2.585938 C 13.164062 -0.867188 7.550781 -0.863281 4.085938 2.601562 C 0.621094 6.066406 0.617188 11.679688 4.070312 15.148438 L 17.003906 28.082031 C 19.671875 30.644531 23.902344 30.601562 26.515625 27.984375 C 29.132812 25.371094 29.171875 21.140625 26.609375 18.476562 Z M 26.609375 18.476562 "/>
</g>
</svg>
