<svg xmlns="http://www.w3.org/2000/svg" viewBox="0 0 20 20" height="20" width="20">
  <path d="M7.8797 6.6138c.2216-.5188.2864-1.1466.1665-1.7524L7.0092.755A1 1 0 005.8967.0103L.8572.7373A1 1 0 00.002 1.7888c.2906 4.71 2.2464 9.1662 5.6197 12.574 3.3982 3.4324 7.973 5.3921 12.7878 5.6361a1 1 0 001.0454-.8968l.54-5.2729a1 1 0 00-.767-1.0756l-3.768-.8812c-.6694-.1364-1.3345-.056-1.9262.223l-1.362.587c-1.0858-.7181-1.8203-1.3054-2.6254-2.1187-.835-.8434-1.4238-1.593-2.124-2.6878l.4575-1.262zm9.6848 11.3148c-3.9758-.4107-7.705-2.1281-10.5215-4.973-2.8092-2.838-4.5226-6.4835-4.9646-10.3737l3.2126-.4634.8048 3.1822c.0306.1617.0078.3823-.0768.5818l-.6436 1.7709a1 1 0 00.0897.867c.8935 1.4444 1.6086 2.3884 2.6597 3.4503 1.0274 1.0378 1.9586 1.7539 3.4115 2.684a1 1 0 00.9352.0761l1.8845-.8127c.2325-.109.4589-.1364.6771-.092l2.8825.6744-.351 3.4281z" fill="currentColor" fill-rule="nonzero"/>
</svg>