<svg xmlns="http://www.w3.org/2000/svg" viewBox="0 0 20 20" height="20" width="20">
  <g fill="none" fill-rule="evenodd">
    <path d="M17.481 12.8406a7.9882 7.9882 0 01-1.3526 2.3017c-2.84 3.3846-7.8861 3.826-11.2707.986-1.5463-1.2974-2.4782-3.0553-2.7637-4.9049m.3941-3.9814a7.9855 7.9855 0 011.3835-2.3843c2.84-3.3846 7.8861-3.826 11.2707-.986 1.5707 1.318 2.5076 3.111 2.7768 4.9927" stroke="currentColor" stroke-width="2"/>
    <path d="M19.8955 4.3245l-.4181 3.9781c-.0578.5493-.5498.9478-1.099.89l-3.9782-.418c-.5492-.0578-.9477-.5499-.89-1.0991.0578-.5493.5498-.9478 1.099-.89l1.9891.209c.5493.0578 1.0413-.3407 1.099-.89l.2091-1.989c.0578-.5493.5498-.9477 1.099-.89.5493.0577.9478.5498.89 1.099zM.1045 15.6755l.4181-3.9781c.0578-.5493.5498-.9478 1.099-.89l3.9782.418c.5492.0578.9477.5499.89 1.0991-.0578.5493-.5498.9478-1.099.89l-1.9891-.209c-.5493-.0578-1.0413.3407-1.099.89l-.2091 1.989c-.0578.5493-.5498.9477-1.099.89-.5493-.0577-.9478-.5498-.89-1.099z" fill="currentColor"/>
  </g>
</svg>