<svg width="24"
  height="24"
  xmlns="http://www.w3.org/2000/svg"
  viewBox="0 0 24 24">
  <g fill="currentColor"
    fill-rule="evenodd">
    <path d="M6.739 12.54l2.307 1.076a.849.849 0 01-.717 1.538l-.48-.224a5.093 5.093 0 008.821-.866l1.61.554a6.792 6.792 0 01-12.029.974l-.178.383a.849.849 0 11-1.538-.717L5.61 12.95a.849.849 0 011.128-.41zM12.014 5.21a6.785 6.785 0 015.763 3.198l.178-.383a.849.849 0 111.538.717l-1.076 2.308a.849.849 0 01-1.127.41l-2.308-1.076a.849.849 0 01.717-1.538l.48.223a5.093 5.093 0 00-8.82.867l-1.611-.554a6.792 6.792 0 016.266-4.172z" />
  </g>
</svg>