<svg width="30" height="30" viewBox="0 0 30 30" version="1.1">
<g id="surface1">
<path style=" stroke:none;fill-rule:nonzero;fill:rgb(0%,0%,0%);fill-opacity:1;" d="M 23.203125 20.488281 L 26.625 20.488281 C 27.554688 20.484375 28.308594 19.78125 28.308594 18.910156 C 28.308594 18.039062 27.554688 17.332031 26.625 17.332031 L 19.472656 17.332031 C 18.542969 17.332031 17.789062 18.039062 17.789062 18.910156 C 17.789062 18.929688 17.796875 18.953125 17.796875 18.976562 C 17.796875 19.003906 17.789062 19.035156 17.789062 19.066406 L 17.789062 26.125 C 17.789062 27.039062 18.492188 27.78125 19.363281 27.78125 C 20.234375 27.78125 20.941406 27.039062 20.941406 26.125 L 20.941406 22.683594 L 27.308594 29.054688 C 27.925781 29.671875 28.921875 29.671875 29.539062 29.054688 C 30.152344 28.4375 30.152344 27.4375 29.539062 26.824219 Z M 23.203125 20.488281 "/>
<path style=" stroke:none;fill-rule:nonzero;fill:rgb(0%,0%,0%);fill-opacity:1;" d="M 12.210938 18.910156 C 12.207031 18.039062 11.457031 17.332031 10.527344 17.332031 L 3.375 17.332031 C 2.445312 17.332031 1.6875 18.039062 1.6875 18.910156 C 1.6875 19.78125 2.445312 20.484375 3.375 20.488281 L 6.796875 20.488281 L 0.457031 26.820312 C -0.152344 27.4375 -0.152344 28.433594 0.457031 29.050781 C 1.074219 29.667969 2.074219 29.667969 2.6875 29.050781 L 9.054688 22.683594 L 9.054688 26.121094 C 9.054688 27.035156 9.765625 27.777344 10.632812 27.78125 C 11.507812 27.78125 12.210938 27.035156 12.210938 26.121094 L 12.210938 19.0625 C 12.210938 19.03125 12.203125 19 12.203125 18.972656 C 12.203125 18.953125 12.207031 18.929688 12.210938 18.910156 Z M 12.210938 18.910156 "/>
<path style=" stroke:none;fill-rule:nonzero;fill:rgb(0%,0%,0%);fill-opacity:1;" d="M 17.789062 11.085938 C 17.789062 11.957031 18.542969 12.664062 19.472656 12.664062 L 26.625 12.664062 C 27.554688 12.664062 28.308594 11.957031 28.308594 11.085938 C 28.308594 10.214844 27.554688 9.511719 26.625 9.511719 L 23.203125 9.511719 L 29.539062 3.175781 C 30.152344 2.558594 30.152344 1.558594 29.539062 0.945312 C 28.921875 0.328125 27.925781 0.328125 27.308594 0.945312 L 20.945312 7.3125 L 20.945312 3.875 C 20.945312 2.957031 20.234375 2.214844 19.367188 2.214844 C 18.492188 2.214844 17.789062 2.957031 17.789062 3.875 L 17.789062 10.929688 C 17.789062 10.960938 17.796875 10.992188 17.796875 11.023438 C 17.796875 11.042969 17.789062 11.0625 17.789062 11.085938 Z M 17.789062 11.085938 "/>
<path style=" stroke:none;fill-rule:nonzero;fill:rgb(0%,0%,0%);fill-opacity:1;" d="M 10.632812 2.214844 C 9.765625 2.214844 9.054688 2.957031 9.054688 3.875 L 9.054688 7.3125 L 2.6875 0.945312 C 2.074219 0.328125 1.078125 0.328125 0.460938 0.945312 C -0.152344 1.558594 -0.152344 2.558594 0.460938 3.175781 L 6.796875 9.507812 L 3.375 9.507812 C 2.445312 9.511719 1.6875 10.214844 1.6875 11.085938 C 1.6875 11.957031 2.445312 12.664062 3.375 12.664062 L 10.527344 12.664062 C 11.457031 12.664062 12.207031 11.957031 12.210938 11.085938 C 12.207031 11.0625 12.203125 11.042969 12.203125 11.023438 C 12.203125 10.988281 12.210938 10.960938 12.210938 10.929688 L 12.210938 3.875 C 12.210938 2.957031 11.507812 2.214844 10.632812 2.214844 Z M 10.632812 2.214844 "/>
</g>
</svg>