<svg xmlns="http://www.w3.org/2000/svg" viewBox="0 0 20 20" >
  <path d="M15 20H5v-3.0734s.1077-2.157-.693-4.421c-.8007-2.264-2.2986-4.4211-2.2986-4.4211L8.4974.6966c.7288-.8299 1.9925-.9118 2.8224-.1828a2 2 0 01.1829.1828l6.4889 7.3879s-1.5357 2.264-2.2986 4.421c-.7629 2.157-.693 4.4211-.693 4.4211V20zM4.4963 8.256c.2179.3738.4472.789.6769 1.236.4022.7828.7462 1.5578 1.0142 2.3156.3543 1.0019.5806 2.0367.7055 3.07h6.2247c.1104-.9224.2958-1.8375.576-2.716a11.98 11.98 0 01.119-.354c.0401-.1134.0822-.2276.1263-.3428.2524-.659.5665-1.3407.9287-2.0366.2075-.3987.4236-.7884.6428-1.1642l-4.871-5.839v4.4853c.5644.2526.959.8297.959 1.5011 0 .9044-.7157 1.6375-1.5984 1.6375s-1.5983-.7331-1.5983-1.6375c0-.6714.3945-1.2485.959-1.5011V2.425L4.4963 8.256z" fill="currentColor" fill-rule="nonzero"/>
</svg>