<svg width="24" height="24" viewBox="0 0 24 24" version="1.1">
<g id="surface1">
<path style=" stroke:none;fill-rule:nonzero;fill:rgb(0%,0%,0%);fill-opacity:1;" d="M 22.121094 0.0117188 L 1.882812 0.0117188 C 0.84375 0.0117188 0 0.855469 0 1.890625 L 0 22.109375 C 0 23.148438 0.84375 23.992188 1.882812 23.992188 L 22.121094 23.992188 C 23.160156 23.992188 24.003906 23.148438 24.003906 22.109375 L 24.003906 1.890625 C 24.003906 0.855469 23.160156 0.0117188 22.121094 0.0117188 Z M 20.847656 2.152344 C 21.292969 2.152344 21.652344 2.511719 21.652344 2.957031 C 21.652344 3.402344 21.292969 3.765625 20.847656 3.765625 C 20.402344 3.765625 20.039062 3.402344 20.039062 2.957031 C 20.039062 2.511719 20.402344 2.152344 20.847656 2.152344 Z M 17.957031 2.152344 C 18.402344 2.152344 18.765625 2.511719 18.765625 2.957031 C 18.765625 3.402344 18.402344 3.765625 17.957031 3.765625 C 17.511719 3.765625 17.152344 3.402344 17.152344 2.957031 C 17.152344 2.511719 17.511719 2.152344 17.957031 2.152344 Z M 2.148438 5.765625 L 11.589844 5.765625 L 11.589844 21.84375 L 2.148438 21.84375 Z M 21.855469 21.84375 L 12.414062 21.84375 L 12.414062 5.765625 L 21.855469 5.765625 Z M 21.855469 21.84375 "/>
</g>
</svg>
