<?xml version="1.0" encoding="UTF-8"?>
<svg xmlns="http://www.w3.org/2000/svg" viewBox="0 0 20 20" height="20" width="20">
  <path fill="currentColor" fill-rule="nonzero" d="M10 14.632l.614.323 4.288 2.254-.936-5.458.497-.485 3.468-3.381-5.48-.797L10 2.122 7.55 7.088l-.687.1-4.794.697 3.965 3.865-.117.684-.819 4.775L10 14.632zm-6.597 2.702l.859-5.008L.624 8.78c-1.091-1.064-.706-2.25.802-2.469l5.028-.73 2.248-4.556c.675-1.367 1.922-1.367 2.596 0l2.248 4.556 5.028.73c1.508.22 1.893 1.405.802 2.47l-3.638 3.545.86 5.008c.257 1.502-.752 2.235-2.101 1.526L10 16.495 5.503 18.86c-1.348.71-2.357-.023-2.1-1.525z"/>
</svg>