<svg width="30" height="30" viewBox="0 0 30 30" version="1.1">
<g id="surface1">
<path style=" stroke:none;fill-rule:nonzero;fill:rgb(0%,0%,0%);fill-opacity:1;" d="M 19.285156 0 L 23.035156 3.75 L 17.144531 9.644531 L 20.355469 12.855469 L 26.25 6.964844 L 30 10.714844 L 30 0 Z M 19.285156 0 "/>
<path style=" stroke:none;fill-rule:nonzero;fill:rgb(0%,0%,0%);fill-opacity:1;" d="M 9.644531 17.144531 L 3.75 23.035156 L 0 19.285156 L 0 30 L 10.714844 30 L 6.964844 26.25 L 12.855469 20.355469 Z M 9.644531 17.144531 "/>
<path style=" stroke:none;fill-rule:nonzero;fill:rgb(0%,0%,0%);fill-opacity:1;" d="M 20.355469 17.144531 L 17.144531 20.355469 L 23.035156 26.25 L 19.285156 30 L 30 30 L 30 19.285156 L 26.25 23.035156 Z M 20.355469 17.144531 "/>
<path style=" stroke:none;fill-rule:nonzero;fill:rgb(0%,0%,0%);fill-opacity:1;" d="M 10.714844 0 L 0 0 L 0 10.714844 L 3.75 6.964844 L 9.644531 12.855469 L 12.855469 9.644531 L 6.964844 3.75 Z M 10.714844 0 "/>
</g>
</svg>