<svg xmlns="http://www.w3.org/2000/svg" viewBox="0 0 20 20" height="20" width="20">
  <g stroke="currentColor" fill="none" fill-rule="evenodd" stroke-linecap="round">
    <path d="M4.75 6c.118 0 .2345.0066.349.0195A4.852 4.852 0 005 7c0 1.6565.724 3.0762 2 4-1.8575 1.075-3 2.994-3 5h0-3v-1.25h0c0-1.2537.714-2.4531 1.875-3.125-.7975-.5774-1.25-1.4647-1.25-2.5C1.625 7.4174 3.0241 6 4.75 6zM15.25 6c1.7259 0 3.125 1.4174 3.125 3.125 0 1.0353-.4525 1.9226-1.25 2.5C18.286 12.2969 19 13.4963 19 14.75V16h0-3c0-2.006-1.1425-3.925-3-5 1.276-.9238 2-2.3435 2-4 0-.3352-.0337-.6633-.0979-.9812A3.2686 3.2686 0 0115.25 6z" stroke-width="1.5"/>
    <path d="M4 18v-2c0-2.006 1.1425-3.925 3-5-1.276-.9238-2-2.3435-2-4 0-2.732 2.2386-5 5-5s5 2.268 5 5c0 1.6565-.724 3.0762-2 4 1.8575 1.075 3 2.994 3 5v2H4z" stroke-width="2"/>
  </g>
</svg>