<svg xmlns="http://www.w3.org/2000/svg" viewBox="0 0 20 20">
  <g fill="currentColor" fill-rule="nonzero">
    <path d="M4.427 9v1.1146h.7293L6.8645 17h1.6562l1.3334-5.052c.0486-.139.0833-.2987.1041-.4793.014-.111.0209-.1944.0209-.25h.0416l.0313.25c.007.0209.019.0903.0364.2084.0174.118.0365.2083.0573.2708L11.4792 17h1.6562l1.7083-6.8854h.7292V9h-3.125v1.1146h.9375l-1.0312 4.5625c-.0348.1389-.059.2986-.073.4792l-.0208.2187h-.0417a.4808.4808 0 00-.0052-.0677 1.119 1.119 0 00-.0156-.0833c-.007-.0313-.0104-.0539-.0104-.0678a23.7056 23.7056 0 01-.0417-.2187 8.4661 8.4661 0 00-.052-.2604L10.5938 9H9.4063l-1.5 5.677a4.6562 4.6562 0 00-.047.2553 51.211 51.211 0 01-.0364.224l-.0416.2187h-.0417l-.0209-.2188c-.0138-.1805-.0381-.3402-.0729-.4791l-1.0312-4.5625h.9375V9H4.427z"/>
    <path d="M13.5833 0L19 5.7143V18c0 1.1046-.8954 2-2 2H3c-1.1046 0-2-.8954-2-2V2c0-1.1046.8954-2 2-2h10.5833zM3 2v16h14V8h-6V2H3zm13.516 4L13 2.292V6h3.516z"/>
  </g>
</svg>