<svg width="24"
  height="8"
  viewBox="0 0 24 8"
  xmlns="http://www.w3.org/2000/svg">
  <g fill="currentColor"
    fill-rule="nonzero">
    <path d="M5.854 3.997l2.041-2.046a.366.366 0 00-.52-.514l-2.04 2.038-2.049-2.041a.366.366 0 10-.514.52l2.041 2.04-2.04 2.045a.364.364 0 00.255.627c.097 0 .19-.038.258-.107l2.046-2.043L7.37 6.552a.365.365 0 10.524-.51l-2.04-2.045zM17.99 3.997a.665.665 0 101.331-.002.665.665 0 00-1.33.002" />
    <path d="M16.73 3.997c0-1.061.863-1.925 1.925-1.925 1.06 0 1.925.864 1.925 1.925a1.927 1.927 0 01-1.925 1.925 1.927 1.927 0 01-1.925-1.925m-.757 0a2.685 2.685 0 002.682 2.682 2.686 2.686 0 002.683-2.682 2.686 2.686 0 00-2.683-2.682 2.685 2.685 0 00-2.682 2.682M15.782 1.36h-.112c-.338 0-.664.107-.936.316a.367.367 0 00-.357-.287.362.362 0 00-.363.363l.001 4.517a.366.366 0 00.732 0V3.49c0-.926.084-1.3.877-1.399.074-.009.154-.008.154-.008.217-.007.371-.156.371-.358a.367.367 0 00-.367-.365M8.759 3.555v-.03a1.938 1.938 0 013.764.03H8.76zm4.513-.069c-.157-.746-.566-1.359-1.188-1.753a2.704 2.704 0 00-2.989.08 2.713 2.713 0 00-1.05 2.85 2.703 2.703 0 002.276 2.003c.324.039.64.02.965-.064.28-.069.552-.182.802-.342.26-.167.476-.387.686-.65l.013-.015c.146-.18.119-.437-.041-.56-.136-.104-.362-.145-.54.083-.039.055-.082.11-.129.167a2.1 2.1 0 01-.528.426 1.925 1.925 0 01-.9.227c-1.064-.011-1.633-.754-1.835-1.284a1.925 1.925 0 01-.082-.308.692.692 0 01-.005-.056h3.818c.523-.012.805-.381.727-.804" />
  </g>
</svg>