<svg xmlns="http://www.w3.org/2000/svg" viewBox="0 0 64 20" height="20" width="64">
  <g fill="currentColor" fill-rule="nonzero">
    <path d="M11.6385 9.9912l6.8052-6.822c.2256-.23.3515-.5344.3515-.8572 0-.673-.547-1.2194-1.2199-1.2194-.3278 0-.635.1285-.8668.363-.0006.0014-6.799 6.7959-6.799 6.7959L3.08 1.4455a1.219 1.219 0 00-.8608-.3529C1.5472 1.0926 1 1.6388 1 2.311c0 .328.131.6356.3659.8675L8.17 9.9817l-6.8007 6.8135c-.239.2354-.3694.5437-.3694.8731 0 .6728.5471 1.2186 1.2192 1.2186.3248 0 .6309-.126.8608-.3562l6.8189-6.8096 6.793 6.7848c.2409.2491.5517.3818.8834.3818.6722 0 1.2192-.5466 1.2192-1.2194a1.21 1.21 0 00-.3546-.8595l-6.8014-6.8176zM52.0942 9.9892c0 1.2218.9935 2.2157 2.2168 2.2157 1.2204 0 2.2143-.994 2.2143-2.2157 0-1.222-.9939-2.2158-2.2143-2.2158-1.2233 0-2.2168.9937-2.2168 2.2158"/>
    <path d="M47.8919 9.9903c0-3.5381 2.8782-6.417 6.4168-6.417 3.5367 0 6.4157 2.8789 6.4157 6.417 0 3.5373-2.879 6.4149-6.4157 6.4149-3.5386 0-6.4168-2.8776-6.4168-6.415m-2.5242 0c0 4.9293 4.011 8.9397 8.941 8.9397 4.9299 0 8.9428-4.0104 8.9428-8.9396 0-4.93-4.013-8.9414-8.9428-8.9414-4.93 0-8.941 4.0115-8.941 8.9414M44.733 1.2018l-.375-.001c-1.1262 0-2.2123.3551-3.1195 1.0542-.1195-.547-.6084-.9586-1.1908-.9586-.6704 0-1.2075.537-1.209 1.2087l.004 15.0588c.0017.6704.5486 1.2154 1.2193 1.2154.6706 0 1.2173-.545 1.2191-1.217l.0006-9.2591c0-3.0861.2821-4.3325 2.9257-4.6628.2443-.0304.51-.0257.5112-.0257.7233-.0248 1.2374-.5219 1.2374-1.1937 0-.6722-.5488-1.2192-1.223-1.2192M21.321 8.5183c0-.0333.0026-.068.0042-.1024.7079-2.7983 3.2422-4.8691 6.2605-4.8691 3.0547 0 5.6123 2.1216 6.284 4.9715H21.321zm15.0455-.2302c-.5254-2.4877-1.8873-4.531-3.9612-5.8433-3.0316-1.9247-7.0347-1.8182-9.963.2641-2.3884 1.6992-3.7672 4.4788-3.7672 7.3422 0 .7179.0866 1.4426.2667 2.156.902 3.5478 3.952 6.2336 7.5883 6.6787 1.079.1306 2.1294.068 3.217-.2136.9346-.2273 1.839-.6064 2.6722-1.1404.8648-.5559 1.5874-1.289 2.2871-2.1666.0141-.0162.0284-.0304.0425-.0474.4857-.6023.3956-1.459-.1381-1.8678-.4502-.345-1.2058-.4849-1.8004.2766a8.2437 8.2437 0 01-.4274.5568c-.4727.5224-1.0594 1.0286-1.7622 1.4212-.8945.4778-1.9137.7509-2.9973.757-3.5465-.0395-5.4443-2.515-6.1194-4.2821a6.4165 6.4165 0 01-.2721-1.0247 2.3051 2.3051 0 01-.0168-.1881c.7332 0 12.7269-.002 12.7269-.002 1.7448-.0367 2.6838-1.2683 2.4244-2.6766"/>
  </g>
</svg>