<svg viewBox="0 0 100 100" xmlns="http://www.w3.org/2000/svg">
  <g fill="none" fillRule="nonzero">
    <circle fill="#C2DCFF" cx="50" cy="49.8" r="50" />
    <path d="M28 23.8a4 4 0 0 1 4-4h36a4 4 0 0 1 4 4v57H28v-57z" fill="#79ABED" />
    <path
      d="M64 66.8v14H36v-14h-2v-3c0-.5.5-1 1-1h30c.6 0 1 .5 1 1v3h-2zm-29-39c0-.5.5-1 1-1h10c.6 0 1 .5 1 1v10c0 .6-.5 1-1 1H36a1 1 0 0 1-1-1v-10zm18 0c0-.5.5-1 1-1h10c.6 0 1 .5 1 1v10c0 .6-.5 1-1 1H54a1 1 0 0 1-1-1v-10zm-18 18c0-.5.5-1 1-1h10c.6 0 1 .5 1 1v10c0 .6-.5 1-1 1H36a1 1 0 0 1-1-1v-10zm18 0c0-.5.5-1 1-1h10c.6 0 1 .5 1 1v10c0 .6-.5 1-1 1H54a1 1 0 0 1-1-1v-10z"
      fill="#1268DB"
    />
  </g>
</svg>