<svg viewBox="0 0 100 100" xmlns="http://www.w3.org/2000/svg">
  <g fillRule="nonzero" fill="none">
    <circle fill="#C2DCFF" cx="50" cy="50" r="50" />
    <path
      d="M30 45a8 8 0 1 1 0-16 8 8 0 0 1 0 16zm0 2c8.8 0 16 4.4 16 9.8V61a2 2 0 0 1-2 2H16a2 2 0 0 1-2-2v-4.2c0-5.4 7.2-9.8 16-9.8zm40-2a8 8 0 1 1 0-16 8 8 0 0 1 0 16zm0 2c8.8 0 16 4.4 16 9.8V61a2 2 0 0 1-2 2H56a2 2 0 0 1-2-2v-4.2c0-5.4 7.2-9.8 16-9.8z"
      fill="#79ABED"
    />
    <path
      d="M50 50a11 11 0 1 1 0-22 11 11 0 0 1 0 22zm0 3c12.2 0 22 5.7 22 12.8V71c0 1.1-.9 2-2 2H30a2 2 0 0 1-2-2v-5.2c0-7 9.8-12.8 22-12.8z"
      fill="#1268DB"
    />
  </g>
</svg>