<svg width="20" height="20" viewBox="0 0 20 20" version="1.1">
<g id="surface1">
<path style=" stroke:none;fill-rule:nonzero;fill:rgb(0%,0%,0%);fill-opacity:1;" d="M 13.8125 6.894531 L 12.246094 6.839844 L 11.90625 16.105469 L 13.472656 16.164062 Z M 13.8125 6.894531 "/>
<path style=" stroke:none;fill-rule:nonzero;fill:rgb(0%,0%,0%);fill-opacity:1;" d="M 9.214844 6.867188 L 10.785156 6.867188 L 10.785156 16.136719 L 9.214844 16.136719 Z M 9.214844 6.867188 "/>
<path style=" stroke:none;fill-rule:nonzero;fill:rgb(0%,0%,0%);fill-opacity:1;" d="M 8.09375 16.105469 L 7.753906 6.835938 L 6.1875 6.894531 L 6.527344 16.164062 Z M 8.09375 16.105469 "/>
<path style=" stroke:none;fill-rule:nonzero;fill:rgb(0%,0%,0%);fill-opacity:1;" d="M 0.679688 3.003906 L 0.679688 4.570312 L 2.3125 4.570312 L 3.605469 19.285156 C 3.640625 19.691406 3.980469 20 4.386719 20 L 15.585938 20 C 15.992188 20 16.332031 19.691406 16.367188 19.285156 L 17.664062 4.570312 L 19.320312 4.570312 L 19.320312 3.003906 Z M 14.871094 18.433594 L 5.105469 18.433594 L 3.882812 4.570312 L 16.089844 4.570312 Z M 14.871094 18.433594 "/>
<path style=" stroke:none;fill-rule:nonzero;fill:rgb(0%,0%,0%);fill-opacity:1;" d="M 12.558594 0 L 7.441406 0 C 6.722656 0 6.136719 0.585938 6.136719 1.304688 L 6.136719 3.785156 L 7.703125 3.785156 L 7.703125 1.566406 L 12.296875 1.566406 L 12.296875 3.785156 L 13.863281 3.785156 L 13.863281 1.304688 C 13.863281 0.585938 13.277344 0 12.558594 0 Z M 12.558594 0 "/>
</g>
</svg>