<svg width="20" height="20" viewBox="0 0 20 20" version="1.1">
<g id="surface1">
<path style=" stroke:none;fill-rule:nonzero;fill:rgb(0%,0%,0%);fill-opacity:1;" d="M 15.832031 10.039062 C 15.371094 10.039062 15 10.410156 15 10.871094 L 15 17.539062 C 15 17.996094 14.625 18.371094 14.167969 18.371094 L 2.5 18.371094 C 2.039062 18.371094 1.667969 17.996094 1.667969 17.539062 L 1.667969 5.871094 C 1.667969 5.414062 2.039062 5.039062 2.5 5.039062 L 9.167969 5.039062 C 9.628906 5.039062 10 4.664062 10 4.207031 C 10 3.746094 9.628906 3.371094 9.167969 3.371094 L 2.5 3.371094 C 1.121094 3.371094 0 4.492188 0 5.871094 L 0 17.539062 C 0 18.917969 1.121094 20.039062 2.5 20.039062 L 14.167969 20.039062 C 15.546875 20.039062 16.667969 18.917969 16.667969 17.539062 L 16.667969 10.871094 C 16.667969 10.410156 16.292969 10.039062 15.832031 10.039062 Z M 15.832031 10.039062 "/>
<path style=" stroke:none;fill-rule:nonzero;fill:rgb(0%,0%,0%);fill-opacity:1;" d="M 7.8125 9.28125 C 7.753906 9.335938 7.714844 9.410156 7.699219 9.492188 L 7.109375 12.4375 C 7.082031 12.574219 7.125 12.714844 7.222656 12.816406 C 7.304688 12.894531 7.410156 12.9375 7.519531 12.9375 C 7.546875 12.9375 7.574219 12.933594 7.601562 12.929688 L 10.546875 12.339844 C 10.628906 12.324219 10.703125 12.285156 10.761719 12.226562 L 17.351562 5.632812 L 14.40625 2.6875 Z M 7.8125 9.28125 "/>
<path style=" stroke:none;fill-rule:nonzero;fill:rgb(0%,0%,0%);fill-opacity:1;" d="M 19.390625 0.648438 C 18.578125 -0.164062 17.257812 -0.164062 16.445312 0.648438 L 15.289062 1.800781 L 18.238281 4.746094 L 19.390625 3.59375 C 19.785156 3.203125 20 2.679688 20 2.121094 C 20 1.566406 19.785156 1.042969 19.390625 0.648438 Z M 19.390625 0.648438 "/>
</g>
</svg>

