<svg width="20" height="20" viewBox="0 0 20 20" version="1.1">
<g id="surface1">
<path style=" stroke:none;fill-rule:nonzero;fill:rgb(26.666667%,26.666667%,26.666667%);fill-opacity:1;" d="M 15 0 L 0 0 L 0 15 L 1.25 13.75 L 1.25 1.25 L 13.75 1.25 Z M 15 0 "/>
<path style=" stroke:none;fill-rule:nonzero;fill:rgb(26.666667%,26.666667%,26.666667%);fill-opacity:1;" d="M 5 20 L 20 20 L 20 5 L 18.75 6.25 L 18.75 18.75 L 6.25 18.75 Z M 5 20 "/>
<path style=" stroke:none;fill-rule:nonzero;fill:rgb(26.666667%,26.666667%,26.666667%);fill-opacity:1;" d="M 8.75 11.25 L 2.5 11.25 L 4.75 13.5 L 0 18.25 L 1.75 20 L 6.5 15.25 L 8.75 17.5 Z M 8.75 11.25 "/>
<path style=" stroke:none;fill-rule:nonzero;fill:rgb(26.666667%,26.666667%,26.666667%);fill-opacity:1;" d="M 20 1.75 L 18.25 0 L 13.5 4.75 L 11.25 2.5 L 11.25 8.75 L 17.5 8.75 L 15.25 6.5 Z M 20 1.75 "/>
</g>
</svg>