<svg width="20" height="20" viewBox="0 0 20 20" version="1.1">
<g id="surface1">
<path style=" stroke:none;fill-rule:nonzero;fill:rgb(0%,0%,0%);fill-opacity:1;" d="M 18.433594 0.0078125 L 1.566406 0.0078125 C 0.703125 0.0078125 0 0.710938 0 1.578125 L 0 18.425781 C 0 19.289062 0.703125 19.992188 1.566406 19.992188 L 18.433594 19.992188 C 19.300781 19.992188 20.003906 19.289062 20.003906 18.425781 L 20.003906 1.578125 C 20.003906 0.710938 19.300781 0.0078125 18.433594 0.0078125 Z M 17.371094 1.792969 C 17.742188 1.792969 18.042969 2.09375 18.042969 2.464844 C 18.042969 2.835938 17.742188 3.136719 17.371094 3.136719 C 17 3.136719 16.699219 2.835938 16.699219 2.464844 C 16.699219 2.09375 17 1.792969 17.371094 1.792969 Z M 14.964844 1.792969 C 15.335938 1.792969 15.636719 2.09375 15.636719 2.464844 C 15.636719 2.835938 15.335938 3.136719 14.964844 3.136719 C 14.59375 3.136719 14.292969 2.835938 14.292969 2.464844 C 14.292969 2.09375 14.59375 1.792969 14.964844 1.792969 Z M 1.792969 4.804688 L 9.65625 4.804688 L 9.65625 18.203125 L 1.792969 18.203125 Z M 18.210938 18.203125 L 10.347656 18.203125 L 10.347656 4.804688 L 18.210938 4.804688 Z M 18.210938 18.203125 "/>
</g>
</svg>
