<svg xmlns="http://www.w3.org/2000/svg" viewBox="0 0 400 80">
  <g fill="currentColor" fill-rule="nonzero">
    <path d="M9.5652 61.913V35.8211h33.0435v26.092h9.5652V0h-9.5652v26.9764H9.5652V0H0v61.913zM70.9565 12.5217v-9.739h-9.7391v9.739zM70.2609 61.2174V19.4783h-9.0435v41.739z"/>
    <path d="M96.9292 18.7826c1.8073 0 3.4575.2998 4.9507.8992l.382.1615-.112.0783c-1.0381.7395-2.0134 1.5938-2.926 2.5628-1.3376 1.4206-2.443 2.9609-3.3147 4.6197l.0868.033c-.796-.3092-1.6795-.4637-2.6507-.4637-2.031 0-3.6587.6283-4.8832 1.885-1.1565 1.1869-1.7669 2.7517-1.8311 4.6945l-.0057.3468v27.6177h-9.408v-41.558h9.408v6.0495l.1208-.3112c1.7685-4.41 5.1629-6.615 10.1831-6.615zM118.8264 18.7826c5.4375 0 9.8917 1.6589 13.3625 4.9766 3.4708 3.3177 5.2061 7.7414 5.2061 13.2709 0 1.2935-.1142 2.7019-.3427 4.2253l-.0911.5767h-29.0678l.0043.412c.081 3.8138 1.2943 6.7322 3.64 8.7554 2.5453 2.0372 5.4376 3.0558 8.677 3.0558 5.9592 0 9.6355-2.8015 11.0286-8.4045l.0779-.3264 7.8092 3.0558-.1412.4132c-3.0625 8.7464-9.3496 13.1196-18.8613 13.1196-6.363 0-11.5114-1.979-15.445-5.937-3.9335-3.958-5.9003-9.2546-5.9003-15.8901 0-6.0534 1.8656-11.1173 5.5966-15.1917 3.7311-4.0744 8.5468-6.1116 14.4472-6.1116zm-.0868 7.8578c-2.8345 0-5.2496.8149-7.2453 2.4446-1.9089 1.559-3.09 3.6504-3.5436 6.2744l-.0573.361h20.3908l.0868-.7857-.005-.331c-.0746-2.405-.9696-4.3172-2.6848-5.737-1.7933-1.4842-4.1071-2.2263-6.9416-2.2263zM189.6416 0l.5609.0032c9.4941.109 16.8948 2.9972 22.2022 8.6646 5.4113 5.7786 8.117 13.3556 8.117 22.731 0 8.9626-2.7498 16.289-8.2494 21.979-5.3896 5.5764-12.7422 8.4203-22.058 8.5318l-.5727.0034h-23.3807V0h23.3807zm0 8.8447H175.966v44.2236h13.6755c6.5877 0 11.7638-2.0785 15.5283-6.2355 3.7644-4.157 5.6466-9.3017 5.6466-15.434 0-6.722-1.8528-12.1615-5.5584-16.3186-3.6152-4.0556-8.658-6.1329-15.1286-6.2318l-.488-.0037zM234.4348 12.5217v-9.739h-9.7391v9.739zM234.4348 61.2174V19.4783h-9.0435v41.739zM258.5 18.7826c5.8142 0 10.1665 2.0818 13.0569 6.2454l.204.301v-5.6617h9.2826v38.3935l-.0041.5475c-.0955 6.3517-1.8623 11.4771-5.3003 15.3761C272.203 77.9948 267.1932 80 260.7101 80c-10.2157 0-16.8016-4.233-19.7574-12.699l-.1339-.3937 8.3986-3.5386.0926.3818c.6777 2.6433 1.9729 4.6687 3.8857 6.076 2.0038 1.4745 4.5086 2.2117 7.5144 2.2117 7.2572 0 10.94-4.378 11.0483-13.134l.0025-.401v-4.4233l-.173.35c-1.1283 2.192-2.8682 3.9184-5.2198 5.179-2.4753 1.327-5.3927 1.9905-8.7522 1.9905-5.4222 0-9.9456-1.9167-13.5702-5.7502-3.6247-3.8335-5.437-8.8464-5.437-15.039 0-6.4284 1.9155-11.7067 5.7464-15.835 3.8309-4.1284 8.5459-6.1926 14.1449-6.1926zm1.5029 7.9618c-3.5362 0-6.4389 1.2827-8.708 3.8482-2.269 2.5655-3.4036 5.9714-3.4036 10.2177 0 3.8924 1.1345 7.0034 3.4036 9.333 2.2691 2.3295 5.1718 3.4943 8.708 3.4943 3.4773 0 6.3652-1.2385 8.6638-3.7155 2.2985-2.595 3.4478-5.8092 3.4478-9.6426 0-3.8925-1.1493-7.1214-3.4478-9.6869-2.2986-2.5655-5.1865-3.8482-8.6638-3.8482zM299.1304 12.5217v-9.739h-9.7391v9.739zM298.4348 61.2174V19.4783h-9.0435v41.739zM325.336 61.913c4.007 0 7.2627-1.1539 9.767-3.4618 2.5044-2.3079 3.9628-5.536 4.3753-9.6843l-8.839-1.7529c-.3535 4.6742-2.2686 7.0113-5.7452 7.0113-1.532 0-2.799-.4966-3.8007-1.4899-1.0017-.9932-1.5026-2.3955-1.5026-4.2067V27.3824h17.3013v-7.8877h-17.3013V6.2609H310.31v13.2338h-8.397v7.8877h8.397v20.508c0 4.3821 1.2816 7.8147 3.8449 10.2979s6.2903 3.7247 11.1812 3.7247zM360 18.7826c5.9108 0 10.461 1.4406 13.6505 4.3218 3.0929 2.7939 4.6862 6.696 4.7799 11.7065l.0044.473V61.04h-8.7785v-6.9846l-.1387.3376c-.9582 2.2293-2.5798 4.023-4.865 5.381-2.3995 1.4261-5.3841 2.1391-8.954 2.1391-3.6285 0-6.818-1.164-9.5686-3.4923-2.7506-2.3282-4.1259-5.384-4.1259-9.1674 0-4.3654 1.4485-7.6686 4.3454-9.9095 2.8969-2.241 6.7448-3.3614 11.5437-3.3614 2.414 0 4.6806.2445 6.7996.7336l.5743.1395 4.3892 1.0477v-3.0558l-.0046-.3317c-.0713-2.5206-.9622-4.52-2.6728-5.9982-1.785-1.5424-4.1113-2.3137-6.9789-2.3137-2.692 0-4.9306.7276-6.7155 2.1828-1.6957 1.3823-2.7972 3.2638-3.3046 5.6442l-.0751.38-8.3396-2.1827.1047-.4395c.9805-3.9258 3.0085-7.0534 6.0841-9.3827 3.1895-2.4155 7.2715-3.6233 12.246-3.6233zm-.6145 24.0972c-5.15 0-7.725 1.8335-7.725 5.5004 0 1.688.6583 3.0558 1.9751 4.1035 1.3168 1.0477 3.2334 1.5716 5.75 1.5716 3.1016 0 5.5889-.7713 7.4616-2.3137 1.7947-1.4782 2.7295-3.5043 2.8042-6.0783l.005-.3389v-.4365l-3.3359-.8731-.5003-.1296c-2.6374-.6703-4.7823-1.0054-6.4347-1.0054zM395.1304 61.913V0h-9.0434v61.913z"/>
  </g>
</svg>