<svg xmlns="http://www.w3.org/2000/svg" viewBox="0 0 20 20">
  <path d="M10 0c5.5228 0 10 4.4772 10 10s-4.4772 10-10 10S0 15.5228 0 10 4.4772 0 10 0zm0 5.5485c-1.5027 0-2.7854 1.2443-2.9374 2.8148L7.054 8.48l.0151.1491c.101.8203.4209 1.4762 1.0716 2.1298l.1696.1635 1.2034 1.1145-1.542.5592c-1.5002.5442-2.4209 1.89-2.495 3.5765l-.0048.2219-.001.2009C6.7586 17.4814 8.3188 18 10 18c1.6812 0 3.2414-.5186 4.529-1.4046l-.0009-.201c0-1.7151-.8582-3.1098-2.3075-3.7228l-.1924-.0755-1.5419-.5592 1.2034-1.1145c.7655-.709 1.1318-1.4047 1.2412-2.2933l.0141-.1491-.0076-.1167c-.1463-1.5123-1.3412-2.7222-2.7714-2.8097L10 5.5485zM10 2c-4.4183 0-8 3.5817-8 8 0 1.8286.6135 3.514 1.646 4.8614.336-1.4341 1.147-2.6586 2.3309-3.4726l.0551-.0368-.0267-.0367c-.5178-.7448-.815-1.5531-.924-2.4649l-.027-.2767-.002-.1185C5.1655 5.755 7.345 3.5485 10 3.5485c2.5832 0 4.7162 2.0888 4.934 4.6889l.0138.2178-.002.1185c-.0789 1.0262-.3816 1.9223-.951 2.7416l-.0278.0367.0561.0368c1.184.814 1.9949 2.0385 2.331 3.4723C17.3864 13.514 18 11.8286 18 10c0-4.4183-3.5817-8-8-8z" fill="currentColor" fill-rule="nonzero"/>
</svg>