<svg class="i-note"
    xmlns="http://www.w3.org/2000/svg"
    viewBox="0 0 30 30">
    <path class="i-fill"
        fill="currentColor"
        fill-rule="evenodd"
        d="M15 25a10 10 0 1 1 0-20 10 10 0 0 1 0 20zm-1.04-7.82h2.14v-.55c0-.44.22-.69.63-.84 1.06-.4 2.2-1.3 2.2-3.24 0-2.33-1.72-3.7-3.98-3.7-2.33 0-3.87 1.44-3.87 3.51 0 .22.01.39.04.59l2.4.32c-.06-.25-.11-.51-.11-.74 0-.89.6-1.48 1.58-1.48.9 0 1.57.48 1.57 1.58 0 .83-.37 1.31-1.01 1.63-1.01.51-1.59.98-1.59 2.08v.84zm1.1 3.97c.81 0 1.46-.65 1.46-1.48a1.48 1.48 0 1 0-2.95 0c0 .83.66 1.48 1.5 1.48z" /></svg>
