<svg xmlns="http://www.w3.org/2000/svg" viewBox="0 0 30 30" height="30" width="30">
  <g fill="none" fill-rule="evenodd">
    <path d="M18.352 8.6873l-.39-.2319-.1054-.4533C17.552 6.67 16.3666 5.7251 15 5.7251c-1.3667 0-2.5519.9448-2.8566 2.277l-.1055.4533-.39.232a6.6093 6.6093 0 00-3.2677 5.6921v4.111l-.6957.253a1.8236 1.8236 0 00.6113 3.5313h13.4084a1.8236 1.8236 0 00.6113-3.5313l-.7062-.253v-4.111c0-2.3612-1.2544-4.5116-3.2572-5.6922h0z" stroke="currentColor" stroke-width="2"/>
    <path d="M17.5 24.2748c0 1.3807-1.1193 2.5-2.5 2.5s-2.5-1.1193-2.5-2.5h5z" fill="currentColor" fill-rule="nonzero"/>
  </g>
</svg>