<svg class="i-quote"
    width="24"
    height="24"
    viewBox="0 0 24 24"
    xmlns="http://www.w3.org/2000/svg">
    <path d="M12 20.5a8.5 8.5 0 1 1 0-17 8.5 8.5 0 0 1 0 17zM10.595 6.873c-3.072 1.003-4.608 2.989-4.608 5.958 0 1.093.238 1.963.713 2.612.476.65 1.118.974 1.928.974.669 0 1.237-.218 1.706-.655.47-.438.704-.977.704-1.62 0-1.17-.687-1.973-2.063-2.41a2.278 2.278 0 0 1-.038-.443c0-1.324.552-2.597 1.658-3.818v-.598zm6.233 0c-3.072 1.003-4.608 2.989-4.608 5.958 0 1.093.238 1.963.714 2.612.475.65 1.118.974 1.928.974.668 0 1.237-.218 1.706-.655.469-.438.704-.977.704-1.62 0-1.17-.688-1.973-2.063-2.41a2.278 2.278 0 0 1-.039-.443c0-1.324.553-2.597 1.658-3.818v-.598z"
        fill="currentColor"
        fill-rule="evenodd" /></svg>
