<svg class="i-skill"
    xmlns="http://www.w3.org/2000/svg"
    width="30"
    height="30"
    viewBox="0 0 30 30">
    <path fill="currentColor"
        fill-rule="nonzero"
        d="M20 25.51235H10v-3s.1077-2.10551-.693-4.31545-2.2986-4.31546-2.2986-4.31546l6.50487-7.22917c.73883-.8211 2.0034-.88779 2.8245-.14895a2 2 0 0 1 .14896.14895l6.50486 7.22917s-1.53571 2.20994-2.29858 4.31546C19.93014 20.3024 20 22.51235 20 22.51235v3zM14.36067 8.35712L9.4963 14.0488c.2179.3649.44721.7702.67688 1.2065.40225.76415.74622 1.52067 1.0142 2.2603.35434.97797.58065 1.98812.7055 2.99676h6.22476c.11035-.90044.29582-1.79369.57604-2.65125.038-.11629.07764-.23147.11895-.3455a13.61571 13.61571 0 0 1 .12632-.33458c.2524-.64335.56648-1.30872.92864-1.98798.2075-.38915.42359-.7696.64282-1.13642l-4.87107-5.6995v4.37814c.5645.24664.95899.8099.95899 1.46532 0 .88273-.7156 1.59832-1.59832 1.59832-.88273 0-1.59832-.7156-1.59832-1.59832 0-.65541.3945-1.21868.959-1.46532V8.35712z" />
</svg>
